<svg xmlns="http://www.w3.org/2000/svg" viewBox="0 0 18 18"><path d="M17.89 2.31l-1.26-.63a.77.77 0 01-.31-.31L15.69.11a.223.223 0 00-.3-.08c-.03.02-.06.05-.08.08l-.63 1.26c-.07.13-.17.24-.31.31l-1.26.63c-.1.05-.15.18-.09.28.02.04.05.07.09.09l1.26.63c.13.07.24.17.31.31l.63 1.26c.05.1.17.15.28.1.04-.02.08-.05.1-.1l.63-1.26c.07-.13.17-.24.31-.31l1.26-.63c.06-.04.11-.11.11-.18 0-.08-.05-.15-.11-.19zM4.1 4.65c.11.05.19.14.25.25l.5 1.01c.04.08.14.12.22.08.03-.02.06-.05.08-.08l.5-1.01c.05-.11.14-.2.25-.25l1.01-.5C6.96 4.12 7 4.06 7 4s-.04-.12-.09-.15L5.9 3.34a.58.58 0 01-.25-.24l-.5-1.01C5.11 2 5 1.98 4.92 2.03a.09.09 0 00-.06.06l-.5 1.01a.58.58 0 01-.25.24l-1.01.5c-.08.04-.12.14-.08.23.02.03.05.06.08.07l1 .51zm11.8 6.69a.55.55 0 01-.25-.25l-.5-1.01c-.04-.08-.15-.1-.23-.05-.03.01-.05.04-.06.06l-.5 1.01a.55.55 0 01-.25.25l-1.01.5c-.08.04-.12.14-.08.22.02.03.04.06.08.08l1.01.5c.11.05.19.14.25.25l.5 1.01c.04.08.14.12.22.08.03-.02.06-.04.08-.08l.5-1.01a.55.55 0 01.25-.25l1.01-.5c.04-.04.08-.09.08-.15s-.04-.12-.09-.15l-1.01-.51zM14.71 5.6L12.4 3.29c-.19-.18-.44-.29-.71-.29-.27 0-.52.11-.71.29L.77 13.51C.27 14 0 14.67 0 15.37a2.677 2.677 0 002.64 2.64c.69 0 1.35-.27 1.84-.76L14.71 7.02c.39-.39.39-1.03 0-1.42zM3.07 15.83c-.25.24-.64.23-.88-.02l-.01-.01a.616.616 0 010-.87l5.59-5.59.89.9-5.59 5.59zm7.01-7.01l-.89-.9 2.51-2.51.89.89-2.51 2.52z"/></svg>