<svg xmlns="http://www.w3.org/2000/svg" viewBox="0 0 18 18"><path d="M0 9a9.014 9.014 0 009 9c.27 0 .52-.11.71-.29l8-8c.18-.19.29-.44.29-.71A9 9 0 000 9zm9.08 6.51c.27-3.44 3-6.17 6.43-6.43l-6.43 6.43zm6.64-8.44a9 9 0 00-7.68 4.9c-.92-.03-1.74-.57-2.14-1.4a.998.998 0 00-1.34-.44c-.48.24-.68.82-.46 1.31a4.51 4.51 0 003.22 2.45c-.15.6-.23 1.21-.26 1.83-3.72-1.06-5.87-4.94-4.8-8.66s4.94-5.87 8.66-4.8c2.32.67 4.14 2.48 4.8 4.81zM11.5 5.25a1.25 1.25 0 110 2.5 1.25 1.25 0 010-2.5zm-5 0a1.25 1.25 0 110 2.5 1.25 1.25 0 010-2.5z"/></svg>