<svg width="24" height="24" viewBox="0 0 24 24" fill="none" xmlns="http://www.w3.org/2000/svg">
<path fill-rule="evenodd" clip-rule="evenodd" d="M12 2.75C6.89137 2.75 2.75 6.89137 2.75 12C2.75 17.1086 6.89137 21.25 12 21.25C17.1086 21.25 21.25 17.1086 21.25 12C21.25 6.89137 17.1086 2.75 12 2.75ZM1.25 12C1.25 6.06294 6.06294 1.25 12 1.25C17.9371 1.25 22.75 6.06294 22.75 12C22.75 17.9371 17.9371 22.75 12 22.75C6.06294 22.75 1.25 17.9371 1.25 12ZM18.0428 9.01751L10.8928 16.5175C10.7464 16.6712 10.5417 16.7555 10.3295 16.7497C10.1173 16.7439 9.91747 16.6484 9.77963 16.487L5.92963 11.9781L7.07037 11.0041L10.3807 14.8809L16.9572 7.98249L18.0428 9.01751Z" fill="#1F1F1F"/>
</svg>
