<svg width="24" height="24" viewBox="0 0 24 24" fill="none" xmlns="http://www.w3.org/2000/svg">
<path fill-rule="evenodd" clip-rule="evenodd" d="M6 2.25C3.92893 2.25 2.25 3.92893 2.25 6V9H3.75V6C3.75 4.75736 4.75736 3.75 6 3.75H9V2.25H6ZM18 21.75C20.0711 21.75 21.75 20.0711 21.75 18V15H20.25V18C20.25 19.2426 19.2426 20.25 18 20.25H15V21.75H18ZM2.25 18C2.25 20.0711 3.92893 21.75 6 21.75H9V20.25H6C4.75736 20.25 3.75 19.2426 3.75 18V15H2.25V18ZM18 2.25C20.0711 2.25 21.75 3.92893 21.75 6V9H20.25V6C20.25 4.75736 19.2426 3.75 18 3.75H15V2.25H18Z" fill="#1F1F1F"/>
</svg>
