<svg width="24" height="24" viewBox="0 0 24 24"  xmlns="http://www.w3.org/2000/svg">
<path fill-rule="evenodd" clip-rule="evenodd" d="M9 19.25L5.81067 19.25L12 13.0607L18.1893 19.25L15 19.25L15 20.75L20 20.75C20.4142 20.75 20.75 20.4142 20.75 20L20.75 15L19.25 15L19.25 18.1893L13.0607 12L19.25 5.81067L19.25 9L20.75 9L20.75 4.00001C20.75 3.5858 20.4142 3.25002 20 3.25001L15 3.25L15 4.75L18.1893 4.75001L12 10.9393L5.81067 4.75001L9 4.75003L9.00001 3.25003L4.00001 3.25C3.80109 3.25 3.61033 3.32902 3.46967 3.46967C3.32902 3.61032 3.25 3.80109 3.25 4V9.00002L4.75 9.00002L4.75 5.81066L10.9393 12L4.75 18.1894L4.75 15L3.25 15V20C3.25 20.1989 3.32902 20.3897 3.46967 20.5304C3.61033 20.671 3.80109 20.75 4.00001 20.75L9.00001 20.75L9 19.25Z" />
</svg>
