<svg width="24" height="24" viewBox="0 0 24 24"  xmlns="http://www.w3.org/2000/svg">
<path fill-rule="evenodd" clip-rule="evenodd" d="M4.29124 2.78016C4.41044 2.605 4.69799 2.24998 5.18654 2.24998C5.67044 2.24998 6.02931 2.5171 6.26379 2.77891C6.49786 3.04026 6.68187 3.37454 6.83175 3.70856C7.13308 4.38009 7.38102 5.24814 7.59825 6.055C7.64483 6.22801 7.69 6.39815 7.7341 6.56429C7.9035 7.2024 8.05727 7.78163 8.21559 8.23902C8.23087 8.28315 8.24579 8.32491 8.26033 8.36436C8.30267 8.30315 8.34668 8.23863 8.39321 8.17043C8.46639 8.06316 8.54578 7.94679 8.63462 7.81988C8.85647 7.50295 9.12533 7.13951 9.42279 6.85165C9.69903 6.58432 10.1325 6.24998 10.6865 6.24998C11.1209 6.24998 11.5031 6.4113 11.8042 6.58067C12.0976 6.74568 12.381 6.95831 12.6182 7.13624L12.6365 7.14997C12.8957 7.34434 13.1052 7.49995 13.3042 7.61192C13.5031 7.7238 13.6209 7.74998 13.6865 7.74998C14.1148 7.74998 14.4317 7.6978 14.769 7.62049C14.8687 7.59764 14.9804 7.56977 15.1026 7.5393C15.373 7.47185 15.6943 7.3917 16.0483 7.32532C17.1363 7.12132 18.7085 6.9992 21.7488 7.25257L21.6243 8.74738C18.6646 8.50075 17.2367 8.62863 16.3248 8.79963C16.011 8.85845 15.7727 8.91821 15.5277 8.97966C15.393 9.01341 15.2564 9.04768 15.1041 9.08259C14.6914 9.17715 14.2583 9.24998 13.6865 9.24998C13.2522 9.24998 12.8699 9.08865 12.5688 8.91928C12.2755 8.75427 11.992 8.54164 11.7549 8.36371L11.7365 8.34998C11.4774 8.15561 11.2679 8 11.0688 7.88803C10.8852 7.78473 10.7707 7.7545 10.7026 7.75046C10.6899 7.75616 10.6135 7.78673 10.4659 7.92955C10.279 8.11044 10.0791 8.372 9.86346 8.68007C9.80094 8.7694 9.73437 8.86681 9.66647 8.96619C9.5227 9.1766 9.37292 9.39581 9.24268 9.56567C9.1437 9.69479 9.0252 9.83755 8.89389 9.95389C8.7896 10.0463 8.5394 10.25 8.18654 10.25C7.63663 10.25 7.32415 9.82094 7.19801 9.6213C7.0384 9.3687 6.90853 9.04865 6.79811 8.72968C6.61975 8.21441 6.44678 7.56223 6.27587 6.91784C6.23375 6.75901 6.19175 6.60067 6.14983 6.44495C5.92956 5.62681 5.70875 4.86986 5.46321 4.32264C5.42007 4.2265 5.3787 4.14277 5.33955 4.0705C5.19383 4.50587 5.04589 5.14418 4.90117 5.94574C4.60211 7.60208 4.33881 9.82732 4.12052 12.0725C3.90268 14.3132 3.73134 16.5558 3.61443 18.2394C3.55599 19.0809 3.5112 19.7821 3.48102 20.2726C3.46594 20.5178 3.45451 20.7104 3.44687 20.8415L3.43824 20.9909L3.43542 21.0409C3.43542 21.041 3.43539 21.0416 2.68654 21C1.93769 20.9584 1.9377 20.9583 1.93771 20.9581L1.94067 20.9057L1.94941 20.7542C1.95714 20.6216 1.96867 20.4274 1.98385 20.1805C2.01423 19.6866 2.05928 18.9815 2.11803 18.1355C2.23549 16.4441 2.4079 14.1867 2.62756 11.9274C2.84678 9.67263 3.11473 7.39787 3.42504 5.67921C3.57923 4.82522 3.74948 4.07595 3.93995 3.5274C4.03345 3.25812 4.14672 2.99251 4.29124 2.78016ZM5.54769 3.60271C5.54772 3.60322 5.54424 3.60807 5.53714 3.61574C5.5441 3.60603 5.54765 3.6022 5.54769 3.60271ZM7.89911 8.83121C7.88263 8.84582 7.88349 8.84197 7.9002 8.83024C7.89983 8.83057 7.89947 8.8309 7.89911 8.83121ZM8.4914 8.85747C8.50149 8.86728 8.5064 8.87391 8.50634 8.87478C8.50627 8.87564 8.50122 8.87074 8.4914 8.85747Z" />
</svg>
