<svg width="24" height="24" viewBox="0 0 24 24" fill="none" xmlns="http://www.w3.org/2000/svg">
<path fill-rule="evenodd" clip-rule="evenodd" d="M4.29125 2.78016C4.41045 2.605 4.698 2.24998 5.18656 2.24998C5.67046 2.24998 6.02932 2.5171 6.2638 2.77891C6.49787 3.04026 6.68188 3.37454 6.83176 3.70856C7.13309 4.38009 7.38104 5.24814 7.59827 6.055C7.64485 6.22801 7.69001 6.39815 7.73412 6.56429C7.90352 7.2024 8.05728 7.78163 8.21561 8.23902C8.23088 8.28315 8.2458 8.32491 8.26034 8.36436C8.30268 8.30315 8.3467 8.23863 8.39323 8.17043C8.46641 8.06316 8.54579 7.94679 8.63463 7.81988C8.85648 7.50295 9.12535 7.13951 9.4228 6.85165C9.69904 6.58432 10.1325 6.24998 10.6866 6.24998C11.1209 6.24998 11.5032 6.4113 11.8043 6.58067C12.0976 6.74568 12.381 6.95831 12.6182 7.13624L12.6366 7.14997C12.8957 7.34434 13.1052 7.49995 13.3043 7.61192C13.5032 7.7238 13.6209 7.74998 13.6866 7.74998C14.1148 7.74998 14.4317 7.6978 14.769 7.62049C14.8687 7.59764 14.9805 7.56977 15.1026 7.5393C15.373 7.47185 15.6943 7.3917 16.0483 7.32532C17.1364 7.12132 18.7085 6.9992 21.7488 7.25257L21.6243 8.74738C18.6646 8.50075 17.2368 8.62863 16.3248 8.79963C16.011 8.85845 15.7727 8.91821 15.5277 8.97966C15.3931 9.01341 15.2564 9.04768 15.1041 9.08259C14.6914 9.17715 14.2583 9.24998 13.6866 9.24998C13.2522 9.24998 12.87 9.08865 12.5689 8.91928C12.2755 8.75427 11.9921 8.54164 11.7549 8.36371L11.7366 8.34998C11.4774 8.15561 11.2679 8 11.0689 7.88803C10.8852 7.78473 10.7707 7.7545 10.7026 7.75046C10.6899 7.75616 10.6135 7.78673 10.4659 7.92955C10.279 8.11044 10.0791 8.372 9.86348 8.68007C9.80095 8.7694 9.73439 8.86681 9.66649 8.96619C9.52271 9.1766 9.37293 9.39581 9.2427 9.56567C9.14371 9.69479 9.02521 9.83755 8.89391 9.95389C8.78961 10.0463 8.53941 10.25 8.18656 10.25C7.63665 10.25 7.32417 9.82094 7.19803 9.6213C7.03842 9.3687 6.90854 9.04865 6.79813 8.72968C6.61976 8.21441 6.44679 7.56223 6.27589 6.91784C6.23376 6.75901 6.19177 6.60067 6.14984 6.44495C5.92957 5.62681 5.70877 4.86986 5.46322 4.32264C5.42008 4.2265 5.37872 4.14277 5.33957 4.0705C5.19385 4.50587 5.04591 5.14418 4.90118 5.94574C4.60212 7.60208 4.33882 9.82732 4.12054 12.0725C3.90269 14.3132 3.73136 16.5558 3.61444 18.2394C3.55601 19.0809 3.51121 19.7821 3.48104 20.2726C3.46595 20.5178 3.45453 20.7104 3.44688 20.8415L3.43826 20.9909L3.43544 21.0409C3.43543 21.041 3.4354 21.0416 2.68656 21C1.93771 20.9584 1.93772 20.9583 1.93773 20.9581L1.94068 20.9057L1.94942 20.7542C1.95716 20.6216 1.96868 20.4274 1.98387 20.1805C2.01424 19.6866 2.05929 18.9815 2.11805 18.1355C2.2355 16.4441 2.40792 14.1867 2.62757 11.9274C2.84679 9.67263 3.11474 7.39787 3.42505 5.67921C3.57925 4.82522 3.7495 4.07595 3.93996 3.5274C4.03346 3.25812 4.14674 2.99251 4.29125 2.78016ZM5.5477 3.60271C5.54774 3.60322 5.54426 3.60807 5.53715 3.61574C5.54412 3.60603 5.54766 3.6022 5.5477 3.60271ZM7.89913 8.83121C7.88265 8.84582 7.8835 8.84197 7.90021 8.83024C7.89985 8.83057 7.89948 8.8309 7.89913 8.83121ZM8.49141 8.85747C8.5015 8.86728 8.50642 8.87391 8.50635 8.87478C8.50628 8.87564 8.50124 8.87074 8.49141 8.85747Z" fill="#1F1F1F"/>
</svg>
