<svg width="24" height="24" viewBox="0 0 24 24" fill="none" xmlns="http://www.w3.org/2000/svg">
<path d="M17.5133 3.75004C18.1425 3.75003 18.5624 3.29819 18.8014 2.76345C18.8022 2.76142 18.8028 2.75983 18.8032 2.7587L18.8027 2.76013C18.8854 2.5146 19.0888 2.32964 19.341 2.27009C19.5913 2.21102 19.8541 2.28428 20.0377 2.46377C20.0382 2.4643 20.0388 2.46483 20.0394 2.46535C20.0415 2.46726 20.0449 2.4703 20.0495 2.47429C20.0637 2.48659 20.0882 2.50682 20.1211 2.53036C20.1795 2.57202 20.2524 2.61563 20.3319 2.64749C20.5549 2.72418 20.7846 2.66816 20.983 2.4697C21.2759 2.17681 21.7508 2.17681 22.0437 2.4697C22.3366 2.76259 22.3366 3.23747 22.0437 3.53037C21.7009 3.87317 21.3213 4.0783 20.9261 4.15735C20.5364 4.23529 20.183 4.18051 19.9012 4.08655C19.8643 4.07427 19.8284 4.06123 19.7936 4.04762C19.7503 4.10765 19.7031 4.16882 19.652 4.23018C19.2432 4.72078 18.5492 5.25004 17.5133 5.25004C16.736 5.25004 16.1512 4.95197 15.7349 4.59586C15.6254 4.84218 15.4965 5.10504 15.3469 5.36939C14.7589 6.40853 13.688 7.75004 12 7.75004C10.533 7.75004 9.53767 6.73723 8.92019 5.78969C8.43258 9.26705 7.76469 12.458 6.84559 15.0622C5.70943 18.2813 4.11223 20.8265 1.77668 21.7023L1.25 20.2978C2.91445 19.6736 4.31725 17.7188 5.4311 14.5629C6.40511 11.8032 7.09952 8.2935 7.59132 4.4059C7.60684 4.2832 7.62215 4.16015 7.63727 4.03675C7.68261 3.66656 7.72614 3.29326 7.76793 2.91719C7.80807 2.55593 8.10148 2.27545 8.46418 2.25163C8.82658 2.22782 9.15392 2.4671 9.2413 2.81952L9.24281 2.82547L9.24956 2.85115C9.25606 2.87546 9.2664 2.91309 9.28069 2.96215C9.30931 3.06041 9.35356 3.20366 9.41428 3.37675C9.5366 3.72541 9.72157 4.18294 9.97379 4.634C10.5063 5.58629 11.179 6.23947 11.9805 6.24991L12 6.25002L12.0241 6.24985C12.8256 6.23696 13.5031 5.58203 14.0414 4.63069C14.2969 4.17923 14.485 3.72137 14.6097 3.37256C14.6716 3.19938 14.7169 3.05605 14.7461 2.95774C14.7577 2.9189 14.7668 2.88721 14.7734 2.86362L14.7851 2.82045L14.7863 2.81583C14.8684 2.49351 15.1533 2.26277 15.4857 2.25053C15.8172 2.23832 16.1171 2.4452 16.2235 2.75894C16.2238 2.75963 16.2241 2.76042 16.2245 2.76142C16.4593 3.29014 16.8944 3.75003 17.5133 3.75004Z" fill="#1F1F1F"/>
</svg>
