<svg width="24" height="24" viewBox="0 0 24 24" fill="none" xmlns="http://www.w3.org/2000/svg">
<path fill-rule="evenodd" clip-rule="evenodd" d="M9 1.25C6.92893 1.25 5.25 2.92893 5.25 5V19C5.25 21.0711 6.92893 22.75 9 22.75H15C17.0711 22.75 18.75 21.0711 18.75 19V5C18.75 2.92893 17.0711 1.25 15 1.25H9ZM6.75 5C6.75 3.75736 7.75736 2.75 9 2.75H15C16.2426 2.75 17.25 3.75736 17.25 5V19C17.25 20.2426 16.2426 21.25 15 21.25H9C7.75736 21.25 6.75 20.2426 6.75 19V5ZM10.5 19.75H13.5V18.25H10.5V19.75Z" fill="#1F1F1F"/>
</svg>
