<svg width="24" height="24" viewBox="0 0 24 24" fill="none" xmlns="http://www.w3.org/2000/svg">
<path fill-rule="evenodd" clip-rule="evenodd" d="M3.25 5C3.25 2.92893 4.92893 1.25 7 1.25H17C19.0711 1.25 20.75 2.92893 20.75 5V6V19C20.75 21.0711 19.0711 22.75 17 22.75H7C4.92893 22.75 3.25 21.0711 3.25 19V6V5ZM4.75 6.75V19C4.75 20.2426 5.75736 21.25 7 21.25H17C18.2426 21.25 19.25 20.2426 19.25 19V6.75H4.75ZM19.25 5.25H4.75V5C4.75 3.75736 5.75736 2.75 7 2.75H17C18.2426 2.75 19.25 3.75736 19.25 5V5.25Z" fill="#1F1F1F"/>
</svg>
