<svg width="24" height="24" viewBox="0 0 24 24" fill="none" xmlns="http://www.w3.org/2000/svg">
<path fill-rule="evenodd" clip-rule="evenodd" d="M4 6.5C4.82843 6.5 5.5 5.82843 5.5 5C5.5 4.17157 4.82843 3.5 4 3.5C3.17157 3.5 2.5 4.17157 2.5 5C2.5 5.82843 3.17157 6.5 4 6.5ZM4 13.5C4.82843 13.5 5.5 12.8284 5.5 12C5.5 11.1716 4.82843 10.5 4 10.5C3.17157 10.5 2.5 11.1716 2.5 12C2.5 12.8284 3.17157 13.5 4 13.5ZM5.5 19C5.5 19.8284 4.82843 20.5 4 20.5C3.17157 20.5 2.5 19.8284 2.5 19C2.5 18.1716 3.17157 17.5 4 17.5C4.82843 17.5 5.5 18.1716 5.5 19ZM9 5.75H21V4.25H9V5.75ZM9 12.75H21V11.25H9V12.75ZM21 19.75H9V18.25H21V19.75Z" fill="#1F1F1F"/>
</svg>
