<svg width="24" height="24" viewBox="0 0 24 24" fill="none" xmlns="http://www.w3.org/2000/svg">
<path fill-rule="evenodd" clip-rule="evenodd" d="M2.77997 11.25C3.10844 7.15621 6.10236 3.81443 10.0251 2.9613C8.41949 4.99166 7.40079 7.96769 7.26543 11.25H2.77997ZM2.77997 12.75C3.10844 16.8438 6.10236 20.1856 10.0251 21.0387C8.41949 19.0083 7.40079 16.0323 7.26543 12.75H2.77997ZM8.76665 12.75C8.9274 16.3549 10.2362 19.3616 12 20.9692C13.7638 19.3616 15.0726 16.3549 15.2333 12.75H8.76665ZM16.7346 12.75C16.5992 16.0323 15.5805 19.0083 13.9749 21.0387C17.8976 20.1856 20.8916 16.8438 21.22 12.75H16.7346ZM21.22 11.25H16.7346C16.5992 7.96769 15.5805 4.99166 13.9749 2.9613C17.8976 3.81443 20.8916 7.15621 21.22 11.25ZM15.2333 11.25H8.76665C8.9274 7.64509 10.2362 4.63841 12 3.03083C13.7638 4.63841 15.0726 7.64509 15.2333 11.25ZM1.25 12C1.25 6.06294 6.06294 1.25 12 1.25C17.9371 1.25 22.75 6.06294 22.75 12C22.75 17.9371 17.9371 22.75 12 22.75C6.06294 22.75 1.25 17.9371 1.25 12Z" fill="#1F1F1F"/>
</svg>
