<svg width="24" height="24" viewBox="0 0 24 24"  xmlns="http://www.w3.org/2000/svg">
<path fill-rule="evenodd" clip-rule="evenodd" d="M5 10.25C4.69665 10.25 4.42318 10.4327 4.30709 10.713C4.191 10.9932 4.25517 11.3158 4.46967 11.5303L11.4697 18.5303C11.6103 18.671 11.8011 18.75 12 18.75C12.1989 18.75 12.3897 18.671 12.5303 18.5303L19.5303 11.5303C19.7448 11.3158 19.809 10.9932 19.6929 10.713C19.5768 10.4327 19.3033 10.25 19 10.25L15.7635 10.25C15.8214 8.72805 16.0675 7.6821 16.5387 6.7868C17.091 5.73738 17.9926 4.81581 19.4801 3.57616C19.7054 3.38845 19.8006 3.0867 19.7239 2.80371C19.6471 2.52072 19.4125 2.3084 19.1233 2.2602C15.9274 1.72755 13.1974 2.52152 11.2619 4.18055C9.51297 5.67964 8.45958 7.84538 8.27812 10.25H5ZM17.1893 11.75L12 16.9393L6.81066 11.75H9C9.41421 11.75 9.75 11.4142 9.75 11C9.75 8.70148 10.6671 6.66597 12.2381 5.31944C13.4757 4.2586 15.1549 3.59513 17.1908 3.59561C16.3435 4.40206 15.685 5.18816 15.2113 6.08818C14.5062 7.42791 14.25 8.94119 14.25 11C14.25 11.1989 14.329 11.3897 14.4697 11.5303C14.6103 11.671 14.8011 11.75 15 11.75L17.1893 11.75ZM20 21.75V20.25H4V21.75H20Z" />
</svg>
