<svg width="24" height="24" viewBox="0 0 24 24"  xmlns="http://www.w3.org/2000/svg">
<path d="M7.44151 5.14801V18H11.9055C13.9215 18 15.4695 17.406 16.5495 16.236C17.5755 15.12 18.0975 13.554 18.0975 11.574C18.0975 9.55801 17.6115 7.99201 16.6575 6.91201C15.6135 5.72401 14.0835 5.14801 12.0495 5.14801H7.44151ZM8.91751 6.42601H11.8155C13.5075 6.42601 14.7315 6.85801 15.5235 7.74001C16.2615 8.56801 16.6395 9.84601 16.6395 11.574C16.6395 13.248 16.2255 14.526 15.4335 15.39C14.5875 16.272 13.3275 16.722 11.6535 16.722H8.91751V6.42601Z" />
</svg>
