<svg width="24" height="24" viewBox="0 0 24 24"  xmlns="http://www.w3.org/2000/svg">
<path fill-rule="evenodd" clip-rule="evenodd" d="M10.477 2.85616C11.4466 2.42522 12.5534 2.42522 13.523 2.85616L21.3046 6.31464C21.5754 6.43502 21.75 6.70361 21.75 7C21.75 7.29639 21.5754 7.56498 21.3046 7.68536L13.523 11.1438C12.5534 11.5748 11.4466 11.5748 10.477 11.1438L2.6954 7.68536C2.42455 7.56498 2.25 7.29639 2.25 7C2.25 6.70361 2.42455 6.43502 2.6954 6.31464L10.477 2.85616ZM12.9138 4.22688C12.332 3.96831 11.668 3.96831 11.0862 4.22688L4.84666 7L11.0862 9.77312C11.668 10.0317 12.332 10.0317 12.9138 9.77312L19.1533 7L12.9138 4.22688ZM2.61924 16.01L3.3046 16.3146L11.0862 19.7731C11.668 20.0317 12.332 20.0317 12.9138 19.7731L20.6954 16.3146L21.3808 16.01L21.99 17.3808L21.3046 17.6854L13.523 21.1438C12.5534 21.5748 11.4466 21.5748 10.477 21.1438L2.6954 17.6854L2.01004 17.3808L2.61924 16.01ZM3.3046 11.3146L2.61924 11.01L2.01004 12.3808L2.6954 12.6854L10.477 16.1438C11.4466 16.5748 12.5534 16.5748 13.523 16.1438L21.3046 12.6854L21.99 12.3808L21.3808 11.01L20.6954 11.3146L12.9138 14.7731C12.332 15.0317 11.668 15.0317 11.0862 14.7731L3.3046 11.3146Z" />
</svg>
