<svg width="24" height="24" viewBox="0 0 24 24" fill="none" xmlns="http://www.w3.org/2000/svg">
<path fill-rule="evenodd" clip-rule="evenodd" d="M2.5 5.75C2.5 3.67893 4.17893 2 6.25 2L18.25 2C20.3211 2 22 3.67893 22 5.75L22 17.75C22 19.8211 20.3211 21.5 18.25 21.5L6.25 21.5C4.17893 21.5 2.5 19.8211 2.5 17.75L2.5 5.75ZM6.25 3.5C5.00736 3.5 4 4.50736 4 5.75L4 11L13.5 11L13.5 3.5L6.25 3.5ZM15 3.5L15 11L20.5 11V5.75C20.5 4.50736 19.4926 3.5 18.25 3.5L15 3.5ZM20.5 12.5L11 12.5L11 20L18.25 20C19.4926 20 20.5 18.9926 20.5 17.75L20.5 12.5ZM9.5 20L9.5 12.5L4 12.5L4 17.75C4 18.9926 5.00736 20 6.25 20H9.5Z" fill="#1F1F1F"/>
</svg>
