<svg width="24" height="24" viewBox="0 0 24 24"  xmlns="http://www.w3.org/2000/svg">
<g clip-path="url(#clip0_36_102)">
<g clip-path="url(#clip1_36_102)">
<g clip-path="url(#clip2_36_102)">
<path fill-rule="evenodd" clip-rule="evenodd" d="M16.3767 2.95001C15.0541 2.30928 13.5697 1.95001 12.0014 1.95001C10.4331 1.95001 8.94874 2.30928 7.62609 2.95001H5.99999C4.31552 2.95001 2.94999 4.31554 2.94999 6.00001V7.62913C2.31103 8.95031 1.95282 10.4326 1.95282 11.9986C1.95282 13.5646 2.31103 15.0469 2.94999 16.3681V18C2.94999 19.6845 4.31552 21.05 5.99999 21.05H7.63193C8.95311 21.689 10.4354 22.0472 12.0014 22.0472C13.5674 22.0472 15.0497 21.689 16.3709 21.05H18C19.6845 21.05 21.05 19.6845 21.05 18V16.3739C21.6907 15.0513 22.05 13.5669 22.05 11.9986C22.05 10.4303 21.6907 8.94593 21.05 7.62329V6.00001C21.05 4.31554 19.6845 2.95001 18 2.95001H16.3767ZM16.5774 3.05001H18C19.6292 3.05001 20.95 4.37077 20.95 6.00001V7.42262C19.9884 5.54604 18.454 4.01155 16.5774 3.05001ZM20.95 7.64634C19.9761 5.64767 18.3523 4.0239 16.3537 3.05001H7.64915C5.64854 4.02485 4.02356 5.65082 3.04999 7.65215V16.345C4.0245 18.3483 5.65168 19.9755 7.65495 20.95H16.3479C18.3492 19.9764 19.9752 18.3515 20.95 16.3509V7.64634ZM21.05 7.85788C21.6279 9.11862 21.95 10.521 21.95 11.9986C21.95 13.4762 21.6279 14.8786 21.05 16.1393V7.85788ZM20.95 16.5746V18C20.95 19.6293 19.6292 20.95 18 20.95H16.5719C18.451 19.9887 19.9875 18.453 20.95 16.5746ZM16.136 21.05C14.8768 21.6261 13.4766 21.9472 12.0014 21.9472C10.5262 21.9472 9.12599 21.6261 7.86685 21.05H16.136ZM7.43094 20.95H5.99999C4.37075 20.95 3.04999 19.6293 3.04999 18V16.5691C4.01229 18.45 5.55001 19.9877 7.43094 20.95ZM2.94999 16.1331C2.3739 14.874 2.05282 13.4738 2.05282 11.9986C2.05282 10.5234 2.3739 9.12319 2.94999 7.86405V16.1331ZM3.04999 7.42814V6.00001C3.04999 4.37077 4.37075 3.05001 5.99999 3.05001H7.42542C5.547 4.0125 4.01134 5.54905 3.04999 7.42814ZM7.86068 2.95001H16.1421C14.8814 2.37214 13.479 2.05001 12.0014 2.05001C10.5238 2.05001 9.12142 2.37214 7.86068 2.95001ZM17.05 12C17.05 9.21097 14.789 6.95001 12 6.95001C9.21095 6.95001 6.94999 9.21097 6.94999 12C6.94999 14.7891 9.21095 17.05 12 17.05C14.789 17.05 17.05 14.7891 17.05 12ZM12 7.05001C14.7338 7.05001 16.95 9.2662 16.95 12C16.95 14.7338 14.7338 16.95 12 16.95C9.26618 16.95 7.04999 14.7338 7.04999 12C7.04999 9.2662 9.26618 7.05001 12 7.05001Z"  fill-opacity="0.16"/>
<rect width="16" height="19.9972" rx="3" transform="matrix(-1 0 0 1 20 2)" stroke="#FF0000" stroke-opacity="0.08" stroke-width="0.1"/>
<rect width="19.9972" height="16" rx="3" transform="matrix(-1 0 0 1 22 4)" stroke="#0500FF" stroke-opacity="0.08" stroke-width="0.1"/>
<rect width="14" height="22" rx="3" transform="matrix(-1 0 0 1 19 1)" stroke="#FF0000" stroke-opacity="0.08" stroke-width="0.1"/>
<rect width="22" height="14" rx="3" transform="matrix(-1 0 0 1 23 5)" stroke="#0500FF" stroke-opacity="0.08" stroke-width="0.1"/>
</g>
</g>
<path fill-rule="evenodd" clip-rule="evenodd" d="M21 5.75H3V4.25H21V5.75ZM21 12.75H3V11.25H21V12.75ZM3 19.75H21V18.25H3V19.75Z" />
</g>
<defs>
<clipPath id="clip0_36_102">
<rect width="24" height="24" />
</clipPath>
<clipPath id="clip1_36_102">
<rect width="24" height="24" />
</clipPath>
<clipPath id="clip2_36_102">
<rect width="24" height="24"  transform="matrix(-1 0 0 1 24 0)"/>
</clipPath>
</defs>
</svg>
