<svg width="24" height="24" viewBox="0 0 24 24" fill="none" xmlns="http://www.w3.org/2000/svg">
<g clip-path="url(#clip0_25_171)">
<path fill-rule="evenodd" clip-rule="evenodd" d="M6.5 12C6.5 12.8284 5.82843 13.5 5 13.5C4.17157 13.5 3.5 12.8284 3.5 12C3.5 11.1716 4.17157 10.5 5 10.5C5.82843 10.5 6.5 11.1716 6.5 12ZM13.5 12C13.5 12.8284 12.8284 13.5 12 13.5C11.1716 13.5 10.5 12.8284 10.5 12C10.5 11.1716 11.1716 10.5 12 10.5C12.8284 10.5 13.5 11.1716 13.5 12ZM19 13.5C19.8284 13.5 20.5 12.8284 20.5 12C20.5 11.1716 19.8284 10.5 19 10.5C18.1716 10.5 17.5 11.1716 17.5 12C17.5 12.8284 18.1716 13.5 19 13.5Z" fill="#1F1F1F"/>
</g>
<defs>
<clipPath id="clip0_25_171">
<rect width="24" height="24" fill="white"/>
</clipPath>
</defs>
</svg>
