<svg width="24" height="24" viewBox="0 0 24 24" fill="none" xmlns="http://www.w3.org/2000/svg">
<path fill-rule="evenodd" clip-rule="evenodd" d="M8.21634 3.80799C8.4716 3.76983 8.73325 3.75 9 3.75C9.26675 3.75 9.5284 3.76983 9.78366 3.80799L10.0054 2.32447C9.67699 2.27538 9.34122 2.25 9 2.25C8.65878 2.25 8.32301 2.27538 7.99459 2.32447L8.21634 3.80799ZM5.72695 4.89488C6.13387 4.56995 6.58977 4.30452 7.08146 4.11138L6.53304 2.71523C5.89969 2.96401 5.31346 3.30552 4.79097 3.72273L5.72695 4.89488ZM12.2731 4.89488C11.8661 4.56995 11.4102 4.30452 10.9185 4.11138L11.467 2.71523C12.1003 2.96402 12.6865 3.30552 13.209 3.72273L12.2731 4.89488ZM4.11139 7.08145C4.30452 6.58977 4.56995 6.13387 4.89488 5.72695L3.72273 4.79097C3.30552 5.31346 2.96401 5.89969 2.71523 6.53304L4.11139 7.08145ZM13.8886 7.08146C13.6955 6.58977 13.4301 6.13387 13.1051 5.72695L14.2773 4.79097C14.6945 5.31346 15.036 5.89969 15.2848 6.53304L13.8886 7.08146ZM3.75 9C3.75 8.73325 3.76983 8.4716 3.80799 8.21634L2.32447 7.99459C2.27538 8.32301 2.25 8.65878 2.25 9C2.25 9.34122 2.27538 9.67699 2.32447 10.0054L3.80799 9.78366C3.76983 9.5284 3.75 9.26675 3.75 9ZM14.192 8.21634C14.2093 8.33208 14.2228 8.44914 14.2325 8.56739L15.6539 9H15.75C15.75 8.65878 15.7246 8.32301 15.6755 7.99459L14.192 8.21634ZM8.94266 15.7498L8.47844 14.2245C8.39037 14.2158 8.30299 14.205 8.21634 14.192L7.99459 15.6755C8.30459 15.7219 8.62115 15.7471 8.94266 15.7498ZM4.89488 12.2731C4.56995 11.8661 4.30452 11.4102 4.11138 10.9185L2.71523 11.467C2.96401 12.1003 3.30552 12.6865 3.72273 13.209L4.89488 12.2731ZM5.72695 13.1051C6.13387 13.4301 6.58977 13.6955 7.08146 13.8886L6.53304 15.2848C5.89969 15.036 5.31346 14.6945 4.79097 14.2773L5.72695 13.1051ZM8.84392 8.91042C9.03977 8.71457 9.32763 8.6426 9.59262 8.72325L22.2836 12.5857C22.5996 12.6819 22.8154 12.9735 22.8152 13.3038C22.815 13.6341 22.5987 13.9253 22.2825 14.021L15.89 15.9565L13.9545 22.349C13.8588 22.6652 13.5676 22.8815 13.2373 22.8817C12.907 22.8819 12.6154 22.6661 12.5192 22.3501L8.65674 9.65913C8.57609 9.39414 8.64806 9.10628 8.84392 8.91042ZM13.2348 19.5497L14.5707 15.1377C14.6434 14.8977 14.8312 14.7099 15.0712 14.6372L19.4832 13.3014L10.5012 10.5677L13.2348 19.5497Z" fill="#1F1F1F"/>
</svg>
