<svg width="24" height="24" viewBox="0 0 24 24" fill="none" xmlns="http://www.w3.org/2000/svg">
<path fill-rule="evenodd" clip-rule="evenodd" d="M21 2.25002L13 2.25L13 3.75L19.1893 3.75001L7.46968 15.4697L8.53034 16.5303L20.25 4.81068L20.25 11L21.75 11L21.75 3.00001C21.75 2.5858 21.4142 2.25002 21 2.25002ZM3.75 6.00001C3.75 4.75737 4.75736 3.75001 6 3.75001H10V2.25001H6C3.92893 2.25001 2.25 3.92894 2.25 6.00001V18C2.25 20.0711 3.92893 21.75 6 21.75H18C20.0711 21.75 21.75 20.0711 21.75 18V14H20.25V18C20.25 19.2426 19.2426 20.25 18 20.25H6C4.75736 20.25 3.75 19.2426 3.75 18V6.00001Z" fill="#1F1F1F"/>
</svg>
