<svg width="24" height="24" viewBox="0 0 24 24" fill="none" xmlns="http://www.w3.org/2000/svg">
<path fill-rule="evenodd" clip-rule="evenodd" d="M6 2.25C3.92893 2.25 2.25 3.92893 2.25 6V18C2.25 20.0711 3.92893 21.75 6 21.75H18C20.0711 21.75 21.75 20.0711 21.75 18V6C21.75 3.92893 20.0711 2.25 18 2.25H6ZM3.75 6C3.75 4.75736 4.75736 3.75 6 3.75H18C19.2426 3.75 20.25 4.75736 20.25 6V18C20.25 19.2426 19.2426 20.25 18 20.25H6C4.75736 20.25 3.75 19.2426 3.75 18V6ZM8 7.25C7.58579 7.25 7.25 7.58579 7.25 8V16C7.25 16.4142 7.58579 16.75 8 16.75H16C16.4142 16.75 16.75 16.4142 16.75 16V8C16.75 7.58579 16.4142 7.25 16 7.25H8ZM8.75 15.25V8.75H15.25V15.25H8.75Z" fill="#1F1F1F"/>
</svg>
