<svg width="24" height="24" viewBox="0 0 24 24" fill="none" xmlns="http://www.w3.org/2000/svg">
<path fill-rule="evenodd" clip-rule="evenodd" d="M7 1.25C4.92893 1.25 3.25 2.92893 3.25 5V19C3.25 21.0711 4.92893 22.75 7 22.75H17C19.0711 22.75 20.75 21.0711 20.75 19V5C20.75 2.92893 19.0711 1.25 17 1.25H7ZM4.75 5C4.75 3.75736 5.75736 2.75 7 2.75H17C18.2426 2.75 19.25 3.75736 19.25 5V19C19.25 20.2426 18.2426 21.25 17 21.25H7C5.75736 21.25 4.75 20.2426 4.75 19V5ZM8 8.75H16V7.25H8V8.75ZM16 12.75H8V11.25H16V12.75ZM8 16.75H16V15.25H8V16.75Z" fill="#1F1F1F"/>
</svg>
