<svg width="24" height="24" viewBox="0 0 24 24" fill="none" xmlns="http://www.w3.org/2000/svg">
<path fill-rule="evenodd" clip-rule="evenodd" d="M18.9298 4.8692C15.1222 1.06159 8.87777 1.06159 5.07016 4.8692C1.30545 8.6339 1.2626 14.7791 5.035 18.5515L5.10571 18.6222L6.16637 17.5616L6.09566 17.4909C2.91672 14.3119 2.94419 9.11648 6.13082 5.92986C9.35264 2.70803 14.6474 2.70803 17.8692 5.92986C21.0558 9.11648 21.0833 14.3119 17.9043 17.4909L17.8336 17.5616L18.8943 18.6222L18.965 18.5515C22.7374 14.7791 22.6946 8.6339 18.9298 4.8692ZM15.4697 15.2803L12.75 12.5607L12.75 22.75H11.25L11.25 12.5607L8.53033 15.2803L7.46967 14.2197L11.4697 10.2197C11.7626 9.92679 12.2374 9.92679 12.5303 10.2197L16.5303 14.2197L15.4697 15.2803Z" fill="#1F1F1F"/>
</svg>
