<svg width="24" height="24" viewBox="0 0 24 24" fill="none" xmlns="http://www.w3.org/2000/svg">
<path fill-rule="evenodd" clip-rule="evenodd" d="M12.2997 1.31242C12.3848 1.34948 12.4634 1.40238 12.5305 1.46951C12.5899 1.52893 12.6382 1.59734 12.6742 1.67136L13.5302 3.38335C14.807 3.60856 15.9884 4.11064 17.01 4.82536L18.8267 4.2198C18.9045 4.19293 18.987 4.1787 19.0711 4.17871C19.166 4.1787 19.2589 4.19684 19.3454 4.23085C19.4442 4.26958 19.5305 4.32734 19.6015 4.39847C19.6726 4.46948 19.7304 4.55581 19.7691 4.65462C19.8031 4.74104 19.8213 4.834 19.8213 4.92891C19.8213 5.01296 19.8071 5.09548 19.7802 5.17328L19.1746 6.98996C19.8894 8.01159 20.3914 9.19294 20.6166 10.4698L22.3286 11.3258C22.4026 11.3618 22.4711 11.4101 22.5305 11.4695C22.5976 11.5366 22.6505 11.6152 22.6876 11.7003C22.73 11.7976 22.7502 11.8995 22.7502 12C22.7502 12.1005 22.73 12.2024 22.6876 12.2996C22.6505 12.3848 22.5976 12.4634 22.5305 12.5305C22.4711 12.5899 22.4026 12.6382 22.3286 12.6742L20.6167 13.5302C20.3914 14.807 19.8894 15.9884 19.1746 17.01L19.7802 18.8267C19.8071 18.9045 19.8213 18.987 19.8213 19.0711C19.8213 19.166 19.8031 19.2589 19.7691 19.3453C19.7304 19.4442 19.6726 19.5305 19.6015 19.6015C19.5305 19.6726 19.4442 19.7304 19.3454 19.7691C19.2589 19.8031 19.166 19.8213 19.0711 19.8213C18.987 19.8213 18.9045 19.807 18.8267 19.7802L17.0101 19.1746C15.9884 19.8894 14.8071 20.3914 13.5302 20.6167L12.6742 22.3286C12.6382 22.4026 12.5899 22.471 12.5305 22.5305C12.4634 22.5976 12.3848 22.6505 12.2997 22.6875C12.2024 22.73 12.1005 22.7502 12 22.7502C11.8995 22.7502 11.7976 22.73 11.7003 22.6875C11.6152 22.6505 11.5366 22.5976 11.4695 22.5305C11.4101 22.471 11.3618 22.4026 11.3258 22.3286L10.4698 20.6167C9.19295 20.3914 8.01159 19.8894 6.98995 19.1746L5.1733 19.7802C5.0955 19.807 5.01298 19.8213 4.92893 19.8213C4.83402 19.8213 4.74105 19.8031 4.65464 19.7691C4.55583 19.7304 4.4695 19.6726 4.39848 19.6015C4.32736 19.5305 4.2696 19.4442 4.23087 19.3453C4.19686 19.2589 4.17871 19.166 4.17873 19.0711C4.17871 18.987 4.19294 18.9045 4.21982 18.8267L4.82537 17.01C4.11063 15.9884 3.60855 14.807 3.38334 13.5302L1.67137 12.6742C1.59736 12.6382 1.52895 12.5899 1.46952 12.5305C1.4024 12.4634 1.34949 12.3848 1.31244 12.2996C1.26995 12.2024 1.24975 12.1005 1.24983 12C1.24975 11.8995 1.26995 11.7976 1.31244 11.7003C1.34949 11.6152 1.4024 11.5366 1.46952 11.4695C1.52895 11.4101 1.59736 11.3618 1.67137 11.3258L3.38335 10.4698C3.60856 9.19293 4.11064 8.01158 4.82538 6.98995L4.21982 5.17328C4.19295 5.09548 4.17872 5.01296 4.17873 4.92891C4.17872 4.834 4.19686 4.74103 4.23087 4.65462C4.2696 4.55581 4.32736 4.46948 4.39849 4.39846C4.4695 4.32734 4.55583 4.26958 4.65464 4.23085C4.74106 4.19684 4.83402 4.17869 4.92893 4.17871C5.01298 4.17869 5.0955 4.19292 5.1733 4.2198L6.98998 4.82536C8.01161 4.11063 9.19295 3.60856 10.4698 3.38335L11.3258 1.67136C11.3618 1.59734 11.4101 1.52893 11.4695 1.46951C11.5366 1.40238 11.6152 1.34948 11.7003 1.31242C11.7976 1.26994 11.8995 1.24974 12 1.24982C12.1005 1.24974 12.2024 1.26994 12.2997 1.31242ZM12 4.75C7.99593 4.75 4.75 7.99594 4.75 12C4.75 16.0041 7.99593 19.25 12 19.25C16.0041 19.25 19.25 16.0041 19.25 12C19.25 7.99594 16.0041 4.75 12 4.75Z" fill="#1F1F1F"/>
</svg>
