<svg width="24" height="24" viewBox="0 0 24 24" fill="none" xmlns="http://www.w3.org/2000/svg">
<path fill-rule="evenodd" clip-rule="evenodd" d="M20 5.5C20 6.32843 19.3284 7 18.5 7C17.6716 7 17 6.32843 17 5.5C17 4.67157 17.6716 4 18.5 4C19.3284 4 20 4.67157 20 5.5ZM5.5 20C6.32843 20 7 19.3284 7 18.5C7 17.6716 6.32843 17 5.5 17C4.67157 17 4 17.6716 4 18.5C4 19.3284 4.67157 20 5.5 20ZM18.5 20C19.3284 20 20 19.3284 20 18.5C20 17.6716 19.3284 17 18.5 17C17.6716 17 17 17.6716 17 18.5C17 19.3284 17.6716 20 18.5 20ZM5.5 7C6.32843 7 7 6.32843 7 5.5C7 4.67157 6.32843 4 5.5 4C4.67157 4 4 4.67157 4 5.5C4 6.32843 4.67157 7 5.5 7Z" fill="#1F1F1F"/>
</svg>
