<svg width="24" height="24" viewBox="0 0 24 24"  xmlns="http://www.w3.org/2000/svg">
<g clip-path="url(#clip0_21_54)">
<g clip-path="url(#clip1_21_54)">
<path fill-rule="evenodd" clip-rule="evenodd" d="M16.3767 2.95001C15.0541 2.30928 13.5697 1.95001 12.0014 1.95001C10.4331 1.95001 8.94875 2.30928 7.6261 2.95001H6C4.31554 2.95001 2.95 4.31554 2.95 6.00001V7.62913C2.31105 8.95031 1.95283 10.4326 1.95283 11.9986C1.95283 13.5646 2.31105 15.0469 2.95 16.3681V18C2.95 19.6845 4.31553 21.05 6 21.05H7.63194C8.95312 21.689 10.4354 22.0472 12.0014 22.0472C13.5674 22.0472 15.0497 21.689 16.3709 21.05H18C19.6845 21.05 21.05 19.6845 21.05 18V16.3739C21.6907 15.0513 22.05 13.5669 22.05 11.9986C22.05 10.4303 21.6907 8.94593 21.05 7.62329V6.00001C21.05 4.31554 19.6845 2.95001 18 2.95001H16.3767ZM16.5774 3.05001H18C19.6292 3.05001 20.95 4.37077 20.95 6.00001V7.42262C19.9885 5.54604 18.454 4.01155 16.5774 3.05001ZM20.95 7.64634C19.9761 5.64767 18.3523 4.0239 16.3537 3.05001H7.64916C5.64856 4.02485 4.02358 5.65082 3.05 7.65215V16.345C4.02452 18.3483 5.6517 19.9755 7.65497 20.95H16.3479C18.3492 19.9764 19.9752 18.3515 20.95 16.3509V7.64634ZM21.05 7.85788C21.6279 9.11862 21.95 10.521 21.95 11.9986C21.95 13.4762 21.6279 14.8786 21.05 16.1393V7.85788ZM20.95 16.5746V18C20.95 19.6293 19.6292 20.95 18 20.95H16.5719C18.451 19.9887 19.9875 18.453 20.95 16.5746ZM16.136 21.05C14.8768 21.6261 13.4766 21.9472 12.0014 21.9472C10.5262 21.9472 9.12601 21.6261 7.86687 21.05H16.136ZM7.43096 20.95H6C4.37076 20.95 3.05 19.6293 3.05 18V16.5691C4.0123 18.45 5.55003 19.9877 7.43096 20.95ZM2.95 16.1331C2.37391 14.874 2.05283 13.4738 2.05283 11.9986C2.05283 10.5234 2.37391 9.12319 2.95 7.86405V16.1331ZM3.05 7.42814V6.00001C3.05 4.37077 4.37076 3.05001 6 3.05001H7.42544C5.54702 4.0125 4.01136 5.54905 3.05 7.42814ZM7.8607 2.95001H16.1421C14.8814 2.37214 13.479 2.05001 12.0014 2.05001C10.5238 2.05001 9.12144 2.37214 7.8607 2.95001ZM17.05 12C17.05 9.21097 14.789 6.95001 12 6.95001C9.21096 6.95001 6.95 9.21097 6.95 12C6.95 14.7891 9.21096 17.05 12 17.05C14.789 17.05 17.05 14.7891 17.05 12ZM12 7.05001C14.7338 7.05001 16.95 9.2662 16.95 12C16.95 14.7338 14.7338 16.95 12 16.95C9.26619 16.95 7.05 14.7338 7.05 12C7.05 9.2662 9.26619 7.05001 12 7.05001Z"  fill-opacity="0.16"/>
<rect width="16" height="19.9972" rx="3" transform="matrix(-1 0 0 1 20 2)" stroke="#FF0000" stroke-opacity="0.08" stroke-width="0.1"/>
<rect width="19.9972" height="16" rx="3" transform="matrix(-1 0 0 1 22 4)" stroke="#0500FF" stroke-opacity="0.08" stroke-width="0.1"/>
<rect width="14" height="22" rx="3" transform="matrix(-1 0 0 1 19 1)" stroke="#FF0000" stroke-opacity="0.08" stroke-width="0.1"/>
<rect width="22" height="14" rx="3" transform="matrix(-1 0 0 1 23 5)" stroke="#0500FF" stroke-opacity="0.08" stroke-width="0.1"/>
</g>
</g>
<path fill-rule="evenodd" clip-rule="evenodd" d="M12 1.25C9.37665 1.25 7.25 3.37665 7.25 6V10H8.75V6C8.75 4.20507 10.2051 2.75 12 2.75C13.7949 2.75 15.25 4.20507 15.25 6V10H16.75V6C16.75 3.37665 14.6234 1.25 12 1.25ZM8.75 18V14H7.25V18C7.25 20.6234 9.37665 22.75 12 22.75C14.6234 22.75 16.75 20.6234 16.75 18V14H15.25V18C15.25 19.7949 13.7949 21.25 12 21.25C10.2051 21.25 8.75 19.7949 8.75 18Z" />
<defs>
<clipPath id="clip0_21_54">
<rect width="24" height="24" />
</clipPath>
<clipPath id="clip1_21_54">
<rect width="24" height="24"  transform="matrix(-1 0 0 1 24 0)"/>
</clipPath>
</defs>
</svg>
