<svg width="24" height="24" viewBox="0 0 24 24"  xmlns="http://www.w3.org/2000/svg">
<path fill-rule="evenodd" clip-rule="evenodd" d="M7.85355 8.85356L10.6464 11.6465C10.8417 11.8417 10.8417 12.1583 10.6464 12.3536L7.85355 15.1465C7.53857 15.4614 7 15.2384 7 14.7929V12.75H2V11.25H7V9.20712C7 8.76167 7.53857 8.53858 7.85355 8.85356ZM16.1464 8.85356L13.3536 11.6465C13.1583 11.8417 13.1583 12.1583 13.3536 12.3536L16.1464 15.1465C16.4614 15.4614 17 15.2384 17 14.7929V12.75H22V11.25H17V9.20712C17 8.76167 16.4614 8.53858 16.1464 8.85356Z" />
</svg>
