<svg xmlns="http://www.w3.org/2000/svg" viewBox="0 0 22 22"><path d="M21.86 2.77l-1.51-.76a.828.828 0 01-.37-.37L19.22.13a.242.242 0 00-.35-.09c-.04.02-.07.05-.09.09l-.76 1.52c-.08.16-.21.29-.37.37l-1.51.76c-.12.06-.18.21-.12.33.02.05.06.09.12.12l1.51.76c.16.08.29.21.37.37l.76 1.51c.06.12.21.18.33.12.05-.02.09-.07.12-.12l.76-1.51c.08-.16.21-.29.37-.37l1.51-.76c.07-.06.13-.14.13-.24 0-.09-.06-.17-.14-.22zM3.62 6.18l1.26.63c.13.07.24.17.31.31l.63 1.26c.05.1.17.15.28.1.04-.02.08-.05.1-.1l.63-1.26c.07-.13.17-.24.31-.31l1.26-.63c.05-.04.1-.11.1-.19s-.05-.15-.11-.19l-1.26-.62a.665.665 0 01-.31-.31l-.63-1.26a.223.223 0 00-.3-.08c-.03.02-.06.05-.08.08l-.63 1.26c-.06.13-.17.24-.3.31l-1.26.63c-.1.05-.15.18-.09.28.01.04.05.07.09.09zm15.77 9.63l-1.26-.63a.714.714 0 01-.31-.31l-.63-1.26a.223.223 0 00-.3-.08c-.03.02-.06.04-.08.08l-.63 1.26c-.07.13-.17.24-.31.31l-1.26.63c-.1.05-.15.18-.09.28.02.04.05.07.09.09l1.26.63c.13.07.24.17.31.31l.63 1.26c.05.1.17.15.28.1.04-.02.08-.05.1-.1l.63-1.26c.07-.13.17-.24.31-.31l1.26-.63c.07-.04.11-.11.11-.19a.22.22 0 00-.11-.18zm-2.68-7.82L14.02 5.3a.996.996 0 00-1.41 0L.84 17.05C.3 17.59 0 18.32 0 19.09a2.915 2.915 0 004.94 2.08L16.71 9.4a.996.996 0 000-1.41zM3.53 19.75c-.35.34-.91.33-1.25-.02l-.02-.02a.881.881 0 010-1.24l6.55-6.55 1.28 1.28-6.56 6.55zm7.97-7.97l-1.27-1.28 3.08-3.08 1.28 1.28-3.09 3.08z"/></svg>
