<svg xmlns="http://www.w3.org/2000/svg" viewBox="0 0 22 22"><path d="M11 0C4.92 0 0 4.92 0 11s4.92 11 11 11c.27 0 .52-.11.71-.29l10-10c.18-.19.29-.44.29-.71C21.99 4.93 17.07.01 11 0zM2 11a9 9 0 0117.73-2.19c-3.99.03-7.64 2.22-9.56 5.71-.06-.02-.12-.03-.19-.04a3.446 3.446 0 01-3.07-1.92c-.24-.5-.84-.7-1.34-.46s-.7.84-.46 1.34c.81 1.65 2.4 2.78 4.23 3.01-.34 1.05-.52 2.16-.52 3.28A9.015 9.015 0 012 11zm8.81 8.77a9.01 9.01 0 018.96-8.96l-8.96 8.96zM7.5 6C8.33 6 9 6.67 9 7.5S8.33 9 7.5 9 6 8.33 6 7.5 6.67 6 7.5 6zm7 0c.83 0 1.5.67 1.5 1.5S15.33 9 14.5 9 13 8.33 13 7.5 13.67 6 14.5 6z"/></svg>